<?xml version="1.0" standalone="no"?><!DOCTYPE svg PUBLIC "-//W3C//DTD SVG 1.1//EN" "http://www.w3.org/Graphics/SVG/1.1/DTD/svg11.dtd"><svg t="1515248903185" class="icon" style="" viewBox="0 0 1024 1024" version="1.1" xmlns="http://www.w3.org/2000/svg" p-id="4073" xmlns:xlink="http://www.w3.org/1999/xlink" width="64" height="64"><defs><style type="text/css"></style></defs><path d="M588.558 441.699c14.39 14.54 34.351 23.543 56.414 23.543 43.829 0 79.36-35.531 79.36-79.36 0-21.77-8.766-41.494-22.962-55.832-14.384-14.532-34.344-23.537-56.407-23.537-43.829 0-79.36 35.531-79.36 79.36 0 21.77 8.766 41.494 22.962 55.832z" fill="#DD684F" p-id="4074"></path><path d="M435.2 426.56l-93.76 92.8c32.71 1.815 62.302 13.839 85.982 32.907 13.469 10.383 35.751 18.539 59.939 18.539 24.187 0 46.469-8.156 64.245-21.868 23.366-17.747 52.99-28.9 85.171-29.922l-149.096-143.656-56.96-57.6 198.72-52.16c15.648-4.245 26.968-18.32 26.968-35.040 0-20.020-16.229-36.248-36.248-36.248-3.299 0-6.496 0.441-9.534 1.266l-225.026 60.422c-24.939 6.561-43.034 28.907-43.034 55.48 0 15.826 6.418 30.153 16.792 40.52z" fill="#DD684F" p-id="4075"></path><path d="M951.040 576c-34.946 0.425-66.956 12.652-92.313 32.87-16.418 12.66-38.7 20.816-62.887 20.816-24.187 0-46.469-8.156-64.245-21.868-24.839-18.968-56.63-30.5-91.115-30.5-34.486 0-66.276 11.533-91.728 30.951-17.163 13.261-39.445 21.417-63.633 21.417-24.187 0-46.469-8.156-64.245-21.868-24.839-18.968-56.63-30.5-91.115-30.5-34.486 0-66.276 11.533-91.728 30.951-17.163 13.261-39.445 21.417-63.633 21.417-24.187 0-46.469-8.156-64.245-21.868l-37.195-31.818v203.841l13.12 9.92c25.1 19.101 56.887 30.601 91.36 30.601s66.26-11.5 91.734-30.873c17.158-13.258 39.44-21.414 63.627-21.414 24.187 0 46.469 8.156 64.245 21.868 24.839 18.968 56.63 30.5 91.115 30.5 34.486 0 66.276-11.533 91.728-30.951 17.163-13.261 39.445-21.417 63.633-21.417 24.187 0 46.469 8.156 64.245 21.868 24.839 18.968 56.63 30.5 91.115 30.5 34.486 0 66.276-11.533 91.728-30.951 17.067-13.11 39.194-21.172 63.202-21.171 0.151 0 0.303 0 0.453 0.001z" fill="#DD684F" p-id="4076"></path></svg>