<?xml version="1.0" standalone="no"?><!DOCTYPE svg PUBLIC "-//W3C//DTD SVG 1.1//EN" "http://www.w3.org/Graphics/SVG/1.1/DTD/svg11.dtd"><svg t="1515248887367" class="icon" style="" viewBox="0 0 1024 1024" version="1.1" xmlns="http://www.w3.org/2000/svg" p-id="3387" xmlns:xlink="http://www.w3.org/1999/xlink" width="64" height="64"><defs><style type="text/css"></style></defs><path d="M332.334545 406.807273c-0.930909 1.861818-1.861818 2.792727-2.792727 4.654545 0.930909-1.861818 1.861818-3.723636 2.792727-4.654545z" fill="#FDBD1D" p-id="3388"></path><path d="M282.996364 323.025455l71.68 68.887272c15.825455-21.410909 40.029091-48.407273 68.887272-64.232727L331.403636 242.036364l19.549091 18.618181c-24.203636 19.549091-46.545455 33.512727-67.956363 62.37091z" fill="#FDA6B6" p-id="3389"></path><path d="M801.512727 349.090909l-95.883636 93.090909c8.378182 21.410909 12.101818 45.614545 12.101818 69.818182s-4.654545 48.407273-12.101818 69.818182l95.883636 93.090909c26.996364-48.407273 42.821818-103.330909 42.821818-162.909091S828.509091 397.498182 801.512727 349.090909zM512 717.730909c-24.203636 0-47.476364-4.654545-68.887273-12.101818l-97.745454 93.090909 22.341818-20.48c49.338182 27.927273 106.123636 44.683636 166.632727 44.683636 49.338182 0 96.814545-11.170909 138.705455-30.72l6.516363 6.516364-97.745454-93.090909c-22.341818 7.447273-45.614545 12.101818-69.818182 12.101818zM512 306.269091c24.203636 0 47.476364 4.654545 68.887273 12.101818l97.745454-93.090909-6.516363 6.516364c-41.890909-19.549091-89.367273-30.72-138.705455-30.72-60.509091 0-117.294545 16.756364-166.632727 44.683636L344.436364 225.28l97.745454 93.090909c22.341818-7.447273 45.614545-12.101818 69.818182-12.101818zM306.269091 512c0-24.203636 4.654545-48.407273 12.101818-69.818182l-95.883636-93.090909 15.825454 14.894546c-22.341818 44.683636-34.443636 94.952727-34.443636 148.014545s13.032727 103.330909 34.443636 148.014545l-15.825454 14.894546 95.883636-93.090909c-7.447273-21.410909-12.101818-45.614545-12.101818-69.818182z" fill="#FDBD1D" p-id="3390"></path><path d="M345.367273 768.930909l77.265454-73.541818c-28.858182-15.825455-52.130909-42.821818-68.887272-64.232727l-71.68 69.818181c17.687273 25.134545 39.098182 48.407273 63.301818 67.956364z" fill="#FDA6B6" p-id="3391"></path><path d="M329.541818 613.469091c0.930909 0.930909 1.861818 2.792727 2.792727 3.723636-0.930909-0.930909-1.861818-2.792727-2.792727-3.723636zM691.665455 617.192727c0.930909-1.861818 1.861818-2.792727 2.792727-4.654545-0.930909 1.861818-1.861818 3.723636-2.792727 4.654545z" fill="#FDBD1D" p-id="3392"></path><path d="M754.036364 700.974545l-71.68-69.818181c-15.825455 22.341818-40.029091 49.338182-68.887273 64.232727l83.781818 80.058182c24.203636-19.549091 42.821818-36.305455 56.785455-74.472728zM692.596364 245.76l-83.781819 79.127273c28.858182 15.825455 52.130909 41.890909 67.956364 64.232727l71.68-68.887273c-11.170909-33.512727-32.581818-54.923636-55.854545-74.472727z" fill="#FDA6B6" p-id="3393"></path><path d="M810.821818 308.130909c-25.134545-37.236364-57.716364-69.818182-94.952727-94.952727-33.512727-80.058182-111.709091-136.843636-203.869091-136.843637s-170.356364 56.785455-203.869091 136.843637c-37.236364 25.134545-69.818182 57.716364-94.952727 94.952727-80.058182 33.512727-136.843636 111.709091-136.843637 203.869091s56.785455 171.287273 136.843637 203.869091c25.134545 37.236364 57.716364 69.818182 94.952727 94.952727 32.581818 80.058182 111.709091 136.843636 203.869091 136.843637s170.356364-56.785455 203.869091-136.843637c37.236364-25.134545 69.818182-57.716364 94.952727-94.952727 80.058182-32.581818 136.843636-111.709091 136.843637-203.869091 0-92.16-56.785455-171.287273-136.843637-203.869091zM704.698182 242.036364c31.650909 22.341818 58.647273 50.269091 80.058182 81.92l-90.298182 87.505454c-3.723636-5.585455-7.447273-12.101818-13.032727-18.618182-15.825455-21.410909-40.029091-48.407273-67.956364-64.232727l83.781818-79.127273 7.447273-7.447272zM336.058182 512c0-96.814545 79.127273-175.941818 175.941818-175.941818S687.941818 415.185455 687.941818 512 608.814545 687.941818 512 687.941818 336.058182 608.814545 336.058182 512zM512 106.123636c63.301818 0 119.156364 30.72 153.6 78.196364-46.545455-22.341818-98.676364-34.443636-153.6-34.443636s-107.054545 12.101818-153.6 34.443636c34.443636-47.476364 90.298182-78.196364 153.6-78.196364z m0 73.541819c60.509091 0 118.225455 16.756364 166.632727 44.683636l-97.745454 93.090909c-21.410909-7.447273-44.683636-12.101818-68.887273-12.101818-24.203636 0-47.476364 4.654545-68.887273 12.101818l-97.745454-93.090909c48.407273-27.927273 106.123636-44.683636 166.632727-44.683636zM319.301818 242.036364l91.229091 86.574545c-28.858182 15.825455-52.130909 41.890909-68.887273 64.232727-3.723636 4.654545-7.447273 10.24-10.24 13.963637-0.930909 1.861818-1.861818 2.792727-2.792727 4.654545l-90.298182-87.505454c22.341818-32.581818 50.269091-59.578182 80.989091-81.92zM106.123636 512c0-63.301818 30.72-119.156364 78.196364-153.6-22.341818 46.545455-34.443636 98.676364-34.443636 153.6s12.101818 107.054545 34.443636 153.6c-47.476364-34.443636-78.196364-90.298182-78.196364-153.6z m73.541819 0c0-59.578182 15.825455-114.501818 42.821818-162.909091l95.883636 93.090909c-8.378182 21.410909-12.101818 45.614545-12.101818 69.818182s4.654545 48.407273 12.101818 69.818182l-95.883636 93.090909C195.490909 626.501818 179.665455 571.578182 179.665455 512z m59.578181 188.974545l90.298182-87.505454c0.930909 0.930909 1.861818 2.792727 2.792727 3.723636 2.792727 4.654545 6.516364 9.309091 10.24 13.963637 15.825455 21.410909 40.029091 48.407273 68.887273 64.232727l-77.265454 73.541818-14.894546 13.032727c-30.72-22.341818-58.647273-49.338182-80.058182-80.989091zM512 917.876364c-63.301818 0-119.156364-30.72-153.6-78.196364 46.545455 22.341818 98.676364 34.443636 153.6 34.443636s107.054545-12.101818 153.6-34.443636c-34.443636 47.476364-90.298182 78.196364-153.6 78.196364z m0-73.541819c-60.509091 0-118.225455-16.756364-166.632727-44.683636l97.745454-93.090909c21.410909 7.447273 44.683636 12.101818 68.887273 12.101818 24.203636 0 47.476364-4.654545 68.887273-12.101818l97.745454 93.090909c-48.407273 27.927273-106.123636 44.683636-166.632727 44.683636zM704.698182 781.963636l-7.447273-7.447272-83.781818-80.058182c28.858182-15.825455 53.061818-42.821818 68.887273-64.232727 3.723636-4.654545 6.516364-9.309091 9.309091-13.963637 0.930909-1.861818 1.861818-2.792727 2.792727-4.654545l90.298182 87.505454C763.345455 732.625455 735.418182 759.621818 704.698182 781.963636z m96.814545-107.054545l-95.883636-93.090909c8.378182-21.410909 12.101818-45.614545 12.101818-69.818182s-4.654545-48.407273-12.101818-69.818182l95.883636-93.090909c26.996364 48.407273 42.821818 103.330909 42.821818 162.909091S828.509091 626.501818 801.512727 674.909091z m38.167273-9.309091c22.341818-46.545455 34.443636-98.676364 34.443636-153.6s-12.101818-107.054545-34.443636-153.6c47.476364 34.443636 78.196364 90.298182 78.196364 153.6s-30.72 119.156364-78.196364 153.6z" fill="#B74B00" p-id="3394"></path></svg>